<svg xmlns="http://www.w3.org/2000/svg" version="1.1" xmlns:xlink="http://www.w3.org/1999/xlink" xmlns:svgjs="http://svgjs.dev/svgjs" width="1500" height="1500" viewBox="0 0 1500 1500"><g transform="matrix(1,0,0,1,-0.21332335329316265,-0.21332335329350371)"><svg viewBox="0 0 334 334" data-background-color="#293040" preserveAspectRatio="xMidYMid meet" height="1500" width="1500" xmlns="http://www.w3.org/2000/svg" xmlns:xlink="http://www.w3.org/1999/xlink"><g id="tight-bounds" transform="matrix(1,0,0,1,0.04749999999998522,0.04750000000001364)"><svg viewBox="0 0 333.90454557049503 333.90454557049503" height="333.90454557049503" width="333.90454557049503"><g><svg></svg></g><g><svg viewBox="0 0 333.90454557049503 333.90454557049503" height="333.90454557049503" width="333.90454557049503"><g><path d="M0 166.952c0-92.205 74.747-166.952 166.952-166.952 92.205 0 166.952 74.747 166.953 166.952 0 92.205-74.747 166.952-166.953 166.953-92.205 0-166.952-74.747-166.952-166.953zM166.952 330.191c90.155 0 163.239-73.085 163.239-163.239 0-90.155-73.085-163.239-163.239-163.239-90.155 0-163.239 73.085-163.239 163.239 0 90.155 73.085 163.239 163.239 163.239z" data-fill-palette-color="tertiary" fill="#d5b263" stroke="transparent"></path><ellipse rx="160.27418187383762" ry="160.27418187383762" cx="166.95227278524752" cy="166.95227278524752" fill="#d5b263" stroke="transparent" stroke-width="0" fill-opacity="1" data-fill-palette-color="tertiary"></ellipse></g><g transform="matrix(1,0,0,1,81.13731762004545,71.17305217166896)"><svg viewBox="0 0 171.62991033040413 191.55844122715712" height="191.55844122715712" width="171.62991033040413"><g><svg viewBox="0 0 171.62991033040413 191.55844122715712" height="191.55844122715712" width="171.62991033040413"><g><svg viewBox="0 0 213.15844122715708 237.90899067230578" height="191.55844122715712" width="171.62991033040413"><g transform="matrix(1,0,0,1,0,143.0991531863534)"><svg viewBox="0 0 213.15844122715708 94.80983748595239" height="94.80983748595239" width="213.15844122715708"><g id="textblocktransform"><svg viewBox="0 0 213.15844122715708 94.80983748595239" height="94.80983748595239" width="213.15844122715708" id="textblock"><g><svg viewBox="0 0 213.15844122715708 51.13589598589938" height="51.13589598589938" width="213.15844122715708"><g transform="matrix(1,0,0,1,0,0)"><svg width="213.15844122715708" viewBox="2.2 -36.74 197.51000000000002 47.38000000000001" height="51.13589598589938" data-palette-color="#293040"><path d="M13.96 0.61L13.96 0.61Q10.33 0.61 7.35-0.74 4.37-2.1 2.2-4.42L2.2-4.42 4.47-7.1Q6.27-5.13 8.79-4.03 11.3-2.93 14.01-2.93L14.01-2.93Q17.46-2.93 19.38-4.49 21.31-6.05 21.31-8.59L21.31-8.59Q21.31-10.4 20.56-11.49 19.8-12.57 18.51-13.29 17.21-14.01 15.6-14.72L15.6-14.72 10.72-16.89Q9.16-17.58 7.57-18.65 5.98-19.73 4.92-21.41 3.86-23.1 3.86-25.56L3.86-25.56Q3.86-28.15 5.22-30.15 6.59-32.15 8.97-33.31 11.35-34.47 14.36-34.47L14.36-34.47Q17.46-34.47 20-33.3 22.53-32.13 24.27-30.4L24.27-30.4 22.05-27.71Q20.51-29.17 18.55-30.04 16.6-30.91 14.36-30.91L14.36-30.91Q11.47-30.91 9.7-29.52 7.93-28.13 7.93-25.81L7.93-25.81Q7.93-24.15 8.79-23.07 9.64-22 10.94-21.3 12.23-20.61 13.55-20.04L13.55-20.04 18.38-17.97Q20.36-17.14 21.95-15.99 23.54-14.84 24.46-13.15 25.39-11.45 25.39-8.91L25.39-8.91Q25.39-6.25 24-4.09 22.61-1.93 20.06-0.66 17.5 0.61 13.96 0.61ZM35.64 0L31.69 0 31.69-36.74 35.64-36.74 35.64-26.64 35.5-21.44Q37.3-23.17 39.3-24.39 41.31-25.61 43.89-25.61L43.89-25.61Q47.8-25.61 49.63-23.13 51.46-20.65 51.46-15.87L51.46-15.87 51.46 0 47.56 0 47.56-15.36Q47.56-18.92 46.41-20.56 45.26-22.19 42.65-22.19L42.65-22.19Q40.72-22.19 39.16-21.17 37.6-20.14 35.64-18.19L35.64-18.19 35.64 0ZM63.57 0L59.61 0 59.61-24.98 63.57-24.98 63.57 0ZM61.66-30.25L61.66-30.25Q60.47-30.25 59.74-30.99 59-31.74 59-32.98L59-32.98Q59-34.13 59.74-34.86 60.47-35.6 61.66-35.6L61.66-35.6Q62.86-35.6 63.59-34.86 64.33-34.13 64.33-32.98L64.33-32.98Q64.33-31.74 63.59-30.99 62.86-30.25 61.66-30.25ZM76.14 10.64L72.18 10.64 72.18-24.98 75.48-24.98 75.85-22.09 75.94-22.09Q77.65-23.49 79.74-24.55 81.83-25.61 83.98-25.61L83.98-25.61Q88.86-25.61 91.4-22.14 93.94-18.68 93.94-12.87L93.94-12.87Q93.94-8.62 92.42-5.6 90.91-2.59 88.43-0.99 85.95 0.61 83.05 0.61L83.05 0.61Q81.34 0.61 79.58-0.15 77.82-0.9 76.04-2.29L76.04-2.29 76.14 2.1 76.14 10.64ZM82.44-2.71L82.44-2.71Q85.64-2.71 87.75-5.43 89.86-8.15 89.86-12.82L89.86-12.82Q89.86-17.04 88.27-19.68 86.69-22.31 83.05-22.31L83.05-22.31Q81.41-22.31 79.73-21.4 78.04-20.48 76.14-18.75L76.14-18.75 76.14-5.4Q77.92-3.93 79.55-3.32 81.17-2.71 82.44-2.71ZM107.17 0.61L107.17 0.61Q104.38 0.61 101.99-0.33 99.6-1.27 97.89-2.93L97.89-2.93 99.75-5.25Q101.33-3.93 103.13-3.2 104.92-2.47 107.31-2.47L107.31-2.47Q109.83-2.47 111.1-3.67 112.37-4.88 112.37-6.54L112.37-6.54Q112.37-7.86 111.54-8.73 110.71-9.59 109.4-10.21 108.1-10.82 106.66-11.33L106.66-11.33Q104.8-12.01 103.12-12.92 101.43-13.82 100.36-15.19 99.28-16.55 99.28-18.6L99.28-18.6Q99.28-21.53 101.5-23.57 103.73-25.61 107.78-25.61L107.78-25.61Q110.1-25.61 112.06-24.82 114.03-24.02 115.47-22.83L115.47-22.83 113.66-20.51Q112.34-21.46 110.94-21.98 109.54-22.51 107.83-22.51L107.83-22.51Q105.36-22.51 104.23-21.37 103.09-20.24 103.09-18.8L103.09-18.8Q103.09-17.02 104.6-16.11 106.12-15.21 108.39-14.36L108.39-14.36Q110.37-13.67 112.15-12.78 113.93-11.89 115.05-10.47 116.18-9.06 116.18-6.74L116.18-6.74Q116.18-3.71 113.86-1.55 111.54 0.61 107.17 0.61ZM126.11 0L122.16 0 122.16-36.74 126.11-36.74 126.11-26.64 125.96-21.44Q127.77-23.17 129.77-24.39 131.77-25.61 134.36-25.61L134.36-25.61Q138.27-25.61 140.1-23.13 141.93-20.65 141.93-15.87L141.93-15.87 141.93 0 138.02 0 138.02-15.36Q138.02-18.92 136.88-20.56 135.73-22.19 133.12-22.19L133.12-22.19Q131.19-22.19 129.63-21.17 128.06-20.14 126.11-18.19L126.11-18.19 126.11 0ZM159.7 0.61L159.7 0.61Q156.67 0.61 154.05-0.93 151.43-2.47 149.83-5.38 148.23-8.3 148.23-12.45L148.23-12.45Q148.23-16.63 149.83-19.57 151.43-22.51 154.05-24.06 156.67-25.61 159.7-25.61L159.7-25.61Q162.78-25.61 165.41-24.06 168.05-22.51 169.65-19.57 171.25-16.63 171.25-12.45L171.25-12.45Q171.25-8.3 169.65-5.38 168.05-2.47 165.41-0.93 162.78 0.61 159.7 0.61ZM159.7-2.66L159.7-2.66Q163.05-2.66 165.12-5.36 167.2-8.06 167.2-12.45L167.2-12.45Q167.2-16.87 165.12-19.59 163.05-22.31 159.7-22.31L159.7-22.31Q157.53-22.31 155.84-21.07 154.16-19.82 153.22-17.61 152.28-15.41 152.28-12.45L152.28-12.45Q152.28-8.06 154.36-5.36 156.43-2.66 159.7-2.66ZM181.92 10.64L177.96 10.64 177.96-24.98 181.26-24.98 181.62-22.09 181.72-22.09Q183.43-23.49 185.52-24.55 187.6-25.61 189.75-25.61L189.75-25.61Q194.64-25.61 197.17-22.14 199.71-18.68 199.71-12.87L199.71-12.87Q199.71-8.62 198.2-5.6 196.69-2.59 194.21-0.99 191.73 0.61 188.83 0.61L188.83 0.61Q187.12 0.61 185.36-0.15 183.6-0.9 181.82-2.29L181.82-2.29 181.92 2.1 181.92 10.64ZM188.21-2.71L188.21-2.71Q191.41-2.71 193.52-5.43 195.64-8.15 195.64-12.82L195.64-12.82Q195.64-17.04 194.05-19.68 192.46-22.31 188.83-22.31L188.83-22.31Q187.19-22.31 185.5-21.4 183.82-20.48 181.92-18.75L181.92-18.75 181.92-5.4Q183.7-3.93 185.32-3.32 186.95-2.71 188.21-2.71Z" opacity="1" transform="matrix(1,0,0,1,0,0)" fill="#293040" class="wordmark-text-0" data-fill-palette-color="quaternary" id="text-0"></path></svg></g></svg></g><g transform="matrix(1,0,0,1,0,63.20785376666657)"><svg viewBox="0 0 213.15844122715708 31.60198371928582" height="31.60198371928582" width="213.15844122715708"><g transform="matrix(1,0,0,1,0,0)"><svg width="213.15844122715708" viewBox="2.25 -34.86 289.99 42.99" height="31.60198371928582" data-palette-color="#293040"><path d="M5.64-16.02L5.64 0 2.25 0 2.25-34.86 5.64-34.86 5.64-19.14 16.46-19.14 16.46-34.86 19.87-34.86 19.87 0 16.46 0 16.46-16.02 5.64-16.02ZM33.29 0.27L33.29 0.27Q30.31 0.27 28.88-0.9 27.46-2.08 27.21-4.57L27.21-4.57Q27.19-5.05 27.15-5.54 27.11-6.03 27.16-6.49L27.16-6.49Q27.33-8.67 28.53-10.14 29.73-11.62 33.07-12.84L33.07-12.84Q34.44-13.33 35.95-13.72 37.47-14.11 38.96-14.48L38.96-14.48 38.96-18.99Q38.96-20.19 38.05-20.76 37.15-21.34 34.9-21.34L34.9-21.34Q32.95-21.34 31.94-20.85 30.92-20.36 30.83-19.07L30.83-19.07Q30.78-18.46 30.78-17.32 30.78-16.19 30.83-15.41L30.83-15.41 27.77-15.41Q27.72-16.02 27.68-16.99 27.63-17.97 27.7-18.73L27.7-18.73Q27.82-21.56 29.54-22.81 31.26-24.07 35.02-24.07L35.02-24.07Q38.96-24.07 40.48-22.71 42.01-21.34 42.03-18.21L42.03-18.21 42.03 0 38.96 0 38.96-2.25 38.27-2.25Q37.66-1.03 36.53-0.38 35.39 0.27 33.29 0.27ZM34.07-2.37L34.07-2.37Q37.59-2.37 38.93-4.47L38.93-4.47 38.93-11.87Q37.76-11.62 36.53-11.29 35.29-10.96 33.63-10.4L33.63-10.4Q31.66-9.67 31-8.72 30.34-7.76 30.24-6.49L30.24-6.49Q30.26-6.13 30.28-5.7 30.29-5.27 30.34-4.81L30.34-4.81Q30.51-3.64 31.51-3 32.51-2.37 34.07-2.37ZM56.6 6.86L56.6 6.86Q53.28 6.86 51.25 6.03 49.22 5.2 49.1 3.42L49.1 3.42Q49.1 3.22 49.08 2.95 49.05 2.69 49.05 2.39L49.05 2.39Q49.15 1.32 50.14 0.66 51.13 0 52.42-0.15L52.42-0.15 52.42-0.76Q50.01-1.27 49.93-2.86L49.93-2.86Q49.91-3.27 49.93-3.69L49.93-3.69Q49.96-4.52 50.7-5.08 51.45-5.64 52.37-5.74L52.37-5.74 52.37-6.35Q49.83-7.45 49.66-11.21L49.66-11.21Q49.59-12.67 49.55-13.76 49.52-14.84 49.54-15.95 49.57-17.07 49.66-18.58L49.66-18.58Q49.79-21.48 51.36-22.78 52.93-24.07 56.4-24.07L56.4-24.07Q58.94-24.07 60.43-23.49 61.92-22.9 62.58-21.66L62.58-21.66 63.26-21.66Q63.43-23.75 66.41-23.75L66.41-23.75 66.41-21.02 65.56-21.02Q63.38-21.02 63.29-18.51L63.29-18.51 63.24-16.58Q63.29-15.16 63.29-14.01 63.29-12.87 63.14-11.21L63.14-11.21Q63.02-8.25 61.48-6.98 59.94-5.71 56.4-5.71L56.4-5.71Q54.35-5.74 53.42-5.4 52.5-5.05 52.5-4.27L52.5-4.27 52.5-4.08Q52.54-3.37 53.52-3.08 54.5-2.78 56.77-2.73L56.77-2.73Q60.41-2.64 62.35-1.7 64.29-0.76 64.46 1.42L64.46 1.42 64.46 2.69Q64.29 4.98 62.11 5.92 59.94 6.86 56.6 6.86ZM56.4-8.47L56.4-8.47Q58.35-8.47 59.17-9.01 59.99-9.55 60.06-10.77L60.06-10.77Q60.19-12.5 60.19-14.81 60.19-17.11 60.06-19.02L60.06-19.02Q59.99-20.31 59.16-20.83 58.33-21.34 56.4-21.34L56.4-21.34Q54.47-21.34 53.64-20.81 52.81-20.29 52.72-18.99L52.72-18.99Q52.45-14.36 52.72-10.82L52.72-10.82Q52.81-9.62 53.67-9.05 54.52-8.47 56.4-8.47ZM56.67 4.27L56.67 4.27Q58.77 4.27 60.1 3.88 61.43 3.49 61.53 2.49L61.53 2.49Q61.55 2.22 61.54 1.99 61.53 1.76 61.53 1.51L61.53 1.51Q61.43 0.46 60.12 0.16 58.82-0.15 56.67-0.2L56.67-0.2Q54.6-0.24 53.36 0.12 52.13 0.49 52.01 1.54L52.01 1.54 52.01 2.49Q52.13 3.56 53.37 3.92 54.62 4.27 56.67 4.27ZM78.83 6.86L78.83 6.86Q75.51 6.86 73.48 6.03 71.46 5.2 71.33 3.42L71.33 3.42Q71.33 3.22 71.31 2.95 71.28 2.69 71.28 2.39L71.28 2.39Q71.38 1.32 72.37 0.66 73.36 0 74.65-0.15L74.65-0.15 74.65-0.76Q72.24-1.27 72.16-2.86L72.16-2.86Q72.14-3.27 72.16-3.69L72.16-3.69Q72.19-4.52 72.93-5.08 73.68-5.64 74.61-5.74L74.61-5.74 74.61-6.35Q72.07-7.45 71.9-11.21L71.9-11.21Q71.82-12.67 71.79-13.76 71.75-14.84 71.77-15.95 71.8-17.07 71.9-18.58L71.9-18.58Q72.02-21.48 73.59-22.78 75.17-24.07 78.63-24.07L78.63-24.07Q81.17-24.07 82.66-23.49 84.15-22.9 84.81-21.66L84.81-21.66 85.49-21.66Q85.66-23.75 88.64-23.75L88.64-23.75 88.64-21.02 87.79-21.02Q85.62-21.02 85.52-18.51L85.52-18.51 85.47-16.58Q85.52-15.16 85.52-14.01 85.52-12.87 85.37-11.21L85.37-11.21Q85.25-8.25 83.71-6.98 82.17-5.71 78.63-5.71L78.63-5.71Q76.58-5.74 75.65-5.4 74.73-5.05 74.73-4.27L74.73-4.27 74.73-4.08Q74.78-3.37 75.75-3.08 76.73-2.78 79-2.73L79-2.73Q82.64-2.64 84.58-1.7 86.52-0.76 86.69 1.42L86.69 1.42 86.69 2.69Q86.52 4.98 84.35 5.92 82.17 6.86 78.83 6.86ZM78.63-8.47L78.63-8.47Q80.59-8.47 81.4-9.01 82.22-9.55 82.3-10.77L82.3-10.77Q82.42-12.5 82.42-14.81 82.42-17.11 82.3-19.02L82.3-19.02Q82.22-20.31 81.39-20.83 80.56-21.34 78.63-21.34L78.63-21.34Q76.7-21.34 75.87-20.81 75.04-20.29 74.95-18.99L74.95-18.99Q74.68-14.36 74.95-10.82L74.95-10.82Q75.04-9.62 75.9-9.05 76.75-8.47 78.63-8.47ZM78.9 4.27L78.9 4.27Q81 4.27 82.33 3.88 83.66 3.49 83.76 2.49L83.76 2.49Q83.78 2.22 83.77 1.99 83.76 1.76 83.76 1.51L83.76 1.51Q83.66 0.46 82.36 0.16 81.05-0.15 78.9-0.2L78.9-0.2Q76.83-0.24 75.59 0.12 74.36 0.49 74.24 1.54L74.24 1.54 74.24 2.49Q74.36 3.56 75.61 3.92 76.85 4.27 78.9 4.27ZM98.13-31.69L98.13 0 94.96 0 94.96-31.69 98.13-31.69ZM114.01 0.29L114.01 0.29Q109.99 0.29 108.27-0.98 106.54-2.25 106.42-5.13L106.42-5.13Q106.32-6.93 106.29-9.38 106.25-11.82 106.29-14.28 106.32-16.75 106.42-18.58L106.42-18.58Q106.54-21.53 108.31-22.8 110.08-24.07 114.01-24.07L114.01-24.07Q117.73-24.07 119.39-22.83 121.05-21.58 121.22-18.73L121.22-18.73Q121.27-17.87 121.31-15.75 121.36-13.62 121.17-11.23L121.17-11.23 109.47-11.23Q109.47-9.69 109.5-8.11 109.52-6.52 109.6-4.81L109.6-4.81Q109.62-3.47 110.62-2.95 111.62-2.44 113.92-2.44L113.92-2.44Q116.19-2.44 117.12-2.95 118.04-3.47 118.14-4.81L118.14-4.81Q118.21-6.15 118.14-8.47L118.14-8.47 121.17-8.47Q121.29-7.76 121.28-6.82 121.27-5.88 121.22-5.13L121.22-5.13Q121.05-2.25 119.47-0.98 117.9 0.29 114.01 0.29ZM109.47-13.82L109.47-13.82 118.19-13.82Q118.24-15.48 118.24-16.99 118.24-18.51 118.14-19.07L118.14-19.07Q118.04-20.29 117.09-20.81 116.14-21.34 114.01-21.34L114.01-21.34Q111.65-21.34 110.63-20.81 109.62-20.29 109.6-19.07L109.6-19.07Q109.52-17.65 109.49-16.36 109.45-15.06 109.47-13.82ZM145.64-31.69L145.64-28.17 142.49-28.17 142.49-31.69 145.64-31.69ZM145.64-23.75L145.64 0 142.46 0 142.46-23.75 145.64-23.75ZM161.67 0.29L161.67 0.29Q157.86 0.29 156.53-0.98 155.2-2.25 155.2-5.13L155.2-5.13 155.2-21.02 152.85-21.02 152.85-23.75 155.27-23.75 155.27-30.49 158.37-30.49 158.37-23.75 163.74-23.75 163.74-21.02 158.35-21.02 158.35-4.79Q158.35-3.44 158.91-2.93 159.47-2.42 161.74-2.42L161.74-2.42Q162.67-2.42 163.17-2.45 163.67-2.49 164.33-2.51L164.33-2.51 164.33 0.1Q163.74 0.2 163.06 0.24 162.37 0.29 161.67 0.29ZM191.65 0L191.65 0 183.38 0 183.38-34.86 191.58-34.86Q196.19-34.86 198.27-33.45 200.34-32.03 200.47-28.76L200.47-28.76Q200.61-25.12 200.47-22.53L200.47-22.53Q200.29-18.92 196.27-17.97L196.27-17.97 196.27-17.14Q198.44-16.65 199.44-15.54 200.44-14.43 200.51-12.5L200.51-12.5Q200.64-10.79 200.64-9.31 200.64-7.84 200.51-6.1L200.51-6.1Q200.39-2.86 198.31-1.43 196.22 0 191.65 0ZM191.58-31.74L186.77-31.74 186.77-19.14 191.53-19.14Q194.36-19.14 195.66-20 196.95-20.85 197.07-22.63L197.07-22.63Q197.39-25.78 197.07-28.93L197.07-28.93Q196.95-30.37 195.66-31.05 194.36-31.74 191.58-31.74L191.58-31.74ZM191.24-16.02L186.77-16.02 186.77-3.13 191.65-3.13Q194.41-3.13 195.73-3.87 197.05-4.61 197.12-6.15L197.12-6.15Q197.37-9.25 197.12-12.35L197.12-12.35Q197.05-14.36 195.67-15.19 194.29-16.02 191.24-16.02L191.24-16.02ZM213.4 0.29L213.4 0.29Q210.66 0.29 209.28-0.93 207.9-2.15 207.9-4.96L207.9-4.96 207.9-23.75 211.03-23.75 211.03-4.69Q211.03-3.49 211.78-2.93 212.54-2.37 214.25-2.37L214.25-2.37Q215.98-2.37 217.29-2.95 218.6-3.54 219.21-4.59L219.21-4.59 219.21-23.75 222.38-23.75 222.38 0 219.21 0 219.21-2.25 218.55-2.25Q216.94 0.29 213.4 0.29ZM232.53 8.13L232.53 8.13Q231.75 8.13 230.66 8.06 229.57 7.98 228.86 7.91L228.86 7.91 228.86 5.2Q230.38 5.32 232.43 5.32L232.43 5.32Q234.6 5.32 235.37 4.8 236.14 4.27 236.41 2.95L236.41 2.95 237.12 0 233.82 0 229.43-23.75 232.65-23.75 234.28-12.43 236.16-2.71 237.65-2.71 239.66-12.43 241.39-23.75 244.64-23.75 239.51 2.71Q239.05 5.59 237.56 6.86 236.07 8.13 232.53 8.13ZM268.62-34.86L268.62 0 265.22 0 265.22-34.86 268.62-34.86ZM285.55-31.74L285.55 0 282.16 0 282.16-31.74 275.49-31.74 275.49-34.86 292.24-34.86 292.24-31.74 285.55-31.74Z" opacity="1" transform="matrix(1,0,0,1,0,0)" fill="#293040" class="slogan-text-1" data-fill-palette-color="quaternary" id="text-1"></path></svg></g></svg></g></svg></g></svg></g><g transform="matrix(1,0,0,1,41.793551774149805,0)"><svg viewBox="0 0 129.57133767885747 131.0271954055862" height="131.0271954055862" width="129.57133767885747"><g><svg xmlns="http://www.w3.org/2000/svg" xmlns:xlink="http://www.w3.org/1999/xlink" version="1.1" x="0" y="0" viewBox="5.5 5 89 90" enable-background="new 0 0 100 100" xml:space="preserve" height="131.0271954055862" width="129.57133767885747" class="icon-icon-0" data-fill-palette-color="quaternary" id="icon-0"><path d="M92.46 29.21C93.74 27.47 94.5 25.33 94.5 23.01 94.5 22.88 94.49 22.74 94.46 22.61L94.45 22.57 92.46 12.61A2 2 0 0 0 90.5 11H10.5C9.62 11 8.84 11.58 8.58 12.43L5.59 22.41 5.58 22.43C5.52 22.62 5.5 22.81 5.5 23 5.5 25.86 6.65 28.45 8.5 30.34V87.42C8.5 88.52 9.4 89.42 10.5 89.42S12.5 88.52 12.5 87.42V32.9C13.59 33.29 14.77 33.5 16 33.5 19.5 33.5 22.6 31.78 24.5 29.15 26.4 31.78 29.5 33.5 33 33.5S39.6 31.78 41.5 29.15C43.4 31.78 46.5 33.5 50 33.5S56.6 31.78 58.5 29.15C60.4 31.78 63.5 33.5 67 33.5S73.6 31.78 75.5 29.15C77.4 31.78 80.5 33.5 84 33.5 85.61 33.5 87.14 33.14 88.5 32.48V87.42C88.5 88.52 89.4 89.42 90.5 89.42S92.5 88.52 92.5 87.42V29.62C92.5 29.48 92.49 29.35 92.46 29.22zM84 29.5C80.42 29.5 77.5 26.58 77.5 23 77.5 21.9 76.6 21 75.5 21S73.5 21.9 73.5 23C73.5 26.58 70.58 29.5 67 29.5S60.5 26.58 60.5 23C60.5 21.9 59.6 21 58.5 21S56.5 21.9 56.5 23C56.5 26.58 53.58 29.5 50 29.5S43.5 26.58 43.5 23C43.5 21.9 42.6 21 41.5 21S39.5 21.9 39.5 23C39.5 26.58 36.58 29.5 33 29.5S26.5 26.58 26.5 23C26.5 21.9 25.6 21 24.5 21S22.5 21.9 22.5 23C22.5 26.58 19.58 29.5 16 29.5 12.51 29.5 9.64 26.72 9.51 23.26L11.99 15H88.86L90.49 23.16A6.5 6.5 0 0 1 84 29.5M88.5 9H12.5A2 2 0 0 1 12.5 5H88.5A2 2 0 0 1 88.5 9M92.5 95H7.5A2 2 0 0 1 7.5 91H92.5A2 2 0 0 1 92.5 95M38.5 87.208H18.5A2 2 0 0 1 16.5 85.208V43.208A2 2 0 0 1 18.5 41.208H38.5A2 2 0 0 1 40.5 43.208V85.208A2 2 0 0 1 38.5 87.208M20.5 83.208H36.5V45.208H20.5zM82.5 87.208H46.5A2 2 0 0 1 44.5 85.208V43.208A2 2 0 0 1 46.5 41.208H82.5A2 2 0 0 1 84.5 43.208V85.208A2 2 0 0 1 82.5 87.208M48.5 83.208H80.5V45.208H48.5zM33.75 66.208A2 2 0 1 1 29.751 66.209 2 2 0 0 1 33.75 66.208M58.539 68.669A2 2 0 0 1 57.125 65.255L62.047 60.334A2 2 0 1 1 64.875 63.162L59.953 68.083A2 2 0 0 1 58.539 68.669M65.539 68.669A2 2 0 0 1 64.125 65.255L69.047 60.334A2 2 0 1 1 71.875 63.162L66.953 68.083A2 2 0 0 1 65.539 68.669" fill="#293040" data-fill-palette-color="quaternary"></path></svg></g></svg></g><g></g></svg></g></svg></g></svg></g></svg></g><defs></defs></svg><rect width="333.90454557049503" height="333.90454557049503" fill="none" stroke="none" visibility="hidden"></rect></g></svg></g></svg>